<svg xmlns="http://www.w3.org/2000/svg" xmlns:xlink="http://www.w3.org/1999/xlink" width="500" zoomAndPan="magnify" viewBox="0 0 375 374.999991" height="500" preserveAspectRatio="xMidYMid meet" version="1.0"><defs><clipPath id="41eaa879b5"><path d="M 56.25 82.5 L 318.75 82.5 L 318.75 153 L 56.25 153 Z M 56.25 82.5 " clip-rule="nonzero"/></clipPath><clipPath id="a9124e5951"><path d="M 56.25 222 L 318.75 222 L 318.75 292.5 L 56.25 292.5 Z M 56.25 222 " clip-rule="nonzero"/></clipPath><clipPath id="345e702992"><path d="M 56.25 152 L 318.75 152 L 318.75 223 L 56.25 223 Z M 56.25 152 " clip-rule="nonzero"/></clipPath></defs><rect x="-37.5" width="450" fill="#ffffff" y="-37.499999" height="449.999989" fill-opacity="1"/><rect x="-37.5" width="450" fill="#ffffff" y="-37.499999" height="449.999989" fill-opacity="1"/><g clip-path="url(#41eaa879b5)"><path fill="#838383" d="M 310 108.75 L 151.257812 108.75 C 151.019531 107.820312 150.746094 106.902344 150.433594 105.996094 C 150.121094 105.085938 149.769531 104.195312 149.386719 103.316406 C 149 102.4375 148.578125 101.578125 148.117188 100.734375 C 147.660156 99.890625 147.171875 99.066406 146.644531 98.261719 C 146.117188 97.460938 145.5625 96.679688 144.972656 95.921875 C 144.382812 95.167969 143.761719 94.4375 143.109375 93.730469 C 142.460938 93.023438 141.78125 92.347656 141.074219 91.699219 C 140.367188 91.046875 139.636719 90.429688 138.878906 89.839844 C 138.121094 89.25 137.339844 88.695312 136.535156 88.171875 C 135.734375 87.644531 134.910156 87.15625 134.066406 86.699219 C 133.222656 86.242188 132.359375 85.820312 131.480469 85.4375 C 130.601562 85.050781 129.707031 84.703125 128.800781 84.390625 C 127.894531 84.082031 126.972656 83.808594 126.042969 83.570312 C 125.113281 83.335938 124.175781 83.140625 123.226562 82.980469 C 122.28125 82.824219 121.332031 82.707031 120.375 82.625 C 119.417969 82.546875 118.460938 82.507812 117.5 82.507812 C 116.539062 82.507812 115.582031 82.546875 114.625 82.625 C 113.667969 82.707031 112.71875 82.824219 111.773438 82.980469 C 110.824219 83.140625 109.886719 83.335938 108.957031 83.570312 C 108.027344 83.808594 107.105469 84.082031 106.199219 84.390625 C 105.292969 84.703125 104.398438 85.050781 103.519531 85.4375 C 102.640625 85.820312 101.777344 86.242188 100.933594 86.699219 C 100.089844 87.15625 99.265625 87.644531 98.464844 88.171875 C 97.660156 88.695312 96.878906 89.25 96.121094 89.839844 C 95.363281 90.429688 94.632812 91.046875 93.925781 91.699219 C 93.21875 92.347656 92.539062 93.023438 91.890625 93.730469 C 91.238281 94.4375 90.617188 95.167969 90.027344 95.921875 C 89.4375 96.679688 88.882812 97.460938 88.355469 98.261719 C 87.828125 99.066406 87.339844 99.890625 86.882812 100.734375 C 86.421875 101.578125 86 102.4375 85.613281 103.316406 C 85.230469 104.195312 84.878906 105.085938 84.566406 105.996094 C 84.253906 106.902344 83.980469 107.820312 83.742188 108.75 L 65 108.75 C 64.425781 108.75 63.855469 108.804688 63.292969 108.917969 C 62.730469 109.03125 62.183594 109.195312 61.652344 109.417969 C 61.121094 109.636719 60.617188 109.90625 60.140625 110.226562 C 59.660156 110.542969 59.21875 110.90625 58.8125 111.3125 C 58.40625 111.71875 58.042969 112.160156 57.726562 112.640625 C 57.40625 113.117188 57.136719 113.621094 56.917969 114.152344 C 56.695312 114.683594 56.53125 115.230469 56.417969 115.792969 C 56.304688 116.355469 56.25 116.925781 56.25 117.5 C 56.25 118.074219 56.304688 118.644531 56.417969 119.207031 C 56.53125 119.769531 56.695312 120.316406 56.917969 120.847656 C 57.136719 121.378906 57.40625 121.882812 57.726562 122.359375 C 58.042969 122.839844 58.40625 123.28125 58.8125 123.6875 C 59.21875 124.09375 59.660156 124.457031 60.140625 124.773438 C 60.617188 125.09375 61.121094 125.363281 61.652344 125.582031 C 62.183594 125.804688 62.730469 125.96875 63.292969 126.082031 C 63.855469 126.195312 64.425781 126.25 65 126.25 L 83.742188 126.25 C 83.980469 127.179688 84.253906 128.097656 84.566406 129.003906 C 84.878906 129.914062 85.230469 130.804688 85.613281 131.683594 C 86 132.5625 86.421875 133.421875 86.882812 134.265625 C 87.339844 135.109375 87.828125 135.933594 88.355469 136.738281 C 88.882812 137.539062 89.4375 138.320312 90.027344 139.078125 C 90.617188 139.832031 91.238281 140.5625 91.890625 141.269531 C 92.539062 141.976562 93.21875 142.652344 93.925781 143.300781 C 94.632812 143.953125 95.363281 144.570312 96.121094 145.160156 C 96.878906 145.75 97.660156 146.304688 98.464844 146.828125 C 99.265625 147.355469 100.089844 147.84375 100.933594 148.300781 C 101.777344 148.757812 102.640625 149.179688 103.519531 149.5625 C 104.398438 149.949219 105.292969 150.296875 106.199219 150.609375 C 107.105469 150.917969 108.027344 151.191406 108.957031 151.429688 C 109.886719 151.664062 110.824219 151.859375 111.773438 152.015625 C 112.71875 152.175781 113.667969 152.292969 114.625 152.371094 C 115.582031 152.453125 116.539062 152.492188 117.5 152.492188 C 118.460938 152.492188 119.417969 152.453125 120.375 152.371094 C 121.332031 152.292969 122.28125 152.175781 123.226562 152.015625 C 124.175781 151.859375 125.113281 151.664062 126.042969 151.429688 C 126.972656 151.191406 127.894531 150.917969 128.800781 150.609375 C 129.707031 150.296875 130.601562 149.949219 131.480469 149.5625 C 132.359375 149.179688 133.222656 148.757812 134.066406 148.300781 C 134.910156 147.84375 135.734375 147.355469 136.535156 146.828125 C 137.339844 146.304688 138.121094 145.75 138.878906 145.160156 C 139.636719 144.570312 140.367188 143.953125 141.074219 143.300781 C 141.78125 142.652344 142.460938 141.976562 143.109375 141.269531 C 143.761719 140.5625 144.382812 139.832031 144.972656 139.078125 C 145.5625 138.320312 146.117188 137.539062 146.644531 136.738281 C 147.171875 135.933594 147.660156 135.109375 148.117188 134.265625 C 148.578125 133.421875 149 132.5625 149.386719 131.683594 C 149.769531 130.804688 150.121094 129.914062 150.433594 129.003906 C 150.746094 128.097656 151.019531 127.179688 151.257812 126.25 L 310 126.25 C 310.574219 126.25 311.144531 126.195312 311.707031 126.082031 C 312.269531 125.96875 312.816406 125.804688 313.347656 125.582031 C 313.878906 125.363281 314.382812 125.09375 314.859375 124.773438 C 315.339844 124.457031 315.78125 124.09375 316.1875 123.6875 C 316.59375 123.28125 316.957031 122.839844 317.273438 122.359375 C 317.59375 121.882812 317.863281 121.378906 318.082031 120.847656 C 318.304688 120.316406 318.46875 119.769531 318.582031 119.207031 C 318.695312 118.644531 318.75 118.074219 318.75 117.5 C 318.75 116.925781 318.695312 116.355469 318.582031 115.792969 C 318.46875 115.230469 318.304688 114.683594 318.082031 114.152344 C 317.863281 113.621094 317.59375 113.117188 317.273438 112.640625 C 316.957031 112.160156 316.59375 111.71875 316.1875 111.3125 C 315.78125 110.90625 315.339844 110.542969 314.859375 110.226562 C 314.382812 109.90625 313.878906 109.636719 313.347656 109.417969 C 312.816406 109.195312 312.269531 109.03125 311.707031 108.917969 C 311.144531 108.804688 310.574219 108.75 310 108.75 Z M 117.5 135 C 116.925781 135 116.355469 134.972656 115.785156 134.914062 C 115.214844 134.859375 114.648438 134.777344 114.085938 134.664062 C 113.523438 134.550781 112.96875 134.414062 112.421875 134.246094 C 111.871094 134.078125 111.332031 133.886719 110.804688 133.667969 C 110.273438 133.449219 109.757812 133.203125 109.25 132.933594 C 108.746094 132.664062 108.253906 132.367188 107.777344 132.050781 C 107.300781 131.730469 106.839844 131.390625 106.398438 131.027344 C 105.953125 130.664062 105.53125 130.28125 105.125 129.875 C 104.71875 129.46875 104.335938 129.046875 103.972656 128.601562 C 103.609375 128.160156 103.269531 127.699219 102.949219 127.222656 C 102.628906 126.746094 102.335938 126.253906 102.066406 125.75 C 101.796875 125.242188 101.550781 124.726562 101.332031 124.195312 C 101.113281 123.667969 100.917969 123.128906 100.753906 122.578125 C 100.585938 122.03125 100.449219 121.476562 100.335938 120.914062 C 100.222656 120.351562 100.140625 119.785156 100.085938 119.214844 C 100.027344 118.644531 100 118.074219 100 117.5 C 100 116.925781 100.027344 116.355469 100.085938 115.785156 C 100.140625 115.214844 100.222656 114.648438 100.335938 114.085938 C 100.449219 113.523438 100.585938 112.96875 100.753906 112.421875 C 100.917969 111.871094 101.113281 111.332031 101.332031 110.804688 C 101.550781 110.273438 101.796875 109.757812 102.066406 109.25 C 102.335938 108.746094 102.628906 108.253906 102.949219 107.777344 C 103.269531 107.300781 103.609375 106.839844 103.972656 106.398438 C 104.335938 105.953125 104.71875 105.53125 105.125 105.125 C 105.53125 104.71875 105.953125 104.335938 106.398438 103.972656 C 106.839844 103.609375 107.300781 103.269531 107.777344 102.949219 C 108.253906 102.628906 108.746094 102.335938 109.25 102.066406 C 109.757812 101.796875 110.273438 101.550781 110.804688 101.332031 C 111.332031 101.113281 111.871094 100.917969 112.421875 100.753906 C 112.96875 100.585938 113.523438 100.449219 114.085938 100.335938 C 114.648438 100.222656 115.214844 100.140625 115.785156 100.085938 C 116.355469 100.027344 116.925781 100 117.5 100 C 118.074219 100 118.644531 100.027344 119.214844 100.085938 C 119.785156 100.140625 120.351562 100.222656 120.914062 100.335938 C 121.476562 100.449219 122.03125 100.585938 122.578125 100.753906 C 123.128906 100.917969 123.667969 101.113281 124.195312 101.332031 C 124.726562 101.550781 125.242188 101.796875 125.75 102.066406 C 126.253906 102.335938 126.746094 102.628906 127.222656 102.949219 C 127.699219 103.269531 128.160156 103.609375 128.601562 103.972656 C 129.046875 104.335938 129.46875 104.71875 129.875 105.125 C 130.28125 105.53125 130.664062 105.953125 131.027344 106.398438 C 131.390625 106.839844 131.730469 107.300781 132.050781 107.777344 C 132.367188 108.253906 132.664062 108.746094 132.933594 109.25 C 133.203125 109.757812 133.449219 110.273438 133.667969 110.804688 C 133.886719 111.332031 134.078125 111.871094 134.246094 112.421875 C 134.414062 112.96875 134.550781 113.523438 134.664062 114.085938 C 134.777344 114.648438 134.859375 115.214844 134.914062 115.785156 C 134.972656 116.355469 135 116.925781 135 117.5 C 135 118.074219 134.972656 118.644531 134.914062 119.214844 C 134.859375 119.785156 134.777344 120.351562 134.664062 120.914062 C 134.550781 121.476562 134.414062 122.03125 134.246094 122.578125 C 134.078125 123.128906 133.886719 123.667969 133.667969 124.195312 C 133.449219 124.726562 133.203125 125.242188 132.933594 125.75 C 132.664062 126.253906 132.367188 126.746094 132.050781 127.222656 C 131.730469 127.699219 131.390625 128.160156 131.027344 128.601562 C 130.664062 129.046875 130.28125 129.46875 129.875 129.875 C 129.46875 130.28125 129.046875 130.664062 128.601562 131.027344 C 128.160156 131.390625 127.699219 131.730469 127.222656 132.050781 C 126.746094 132.367188 126.253906 132.664062 125.75 132.933594 C 125.242188 133.203125 124.726562 133.449219 124.195312 133.667969 C 123.667969 133.886719 123.128906 134.078125 122.578125 134.246094 C 122.03125 134.414062 121.476562 134.550781 120.914062 134.664062 C 120.351562 134.777344 119.785156 134.859375 119.214844 134.914062 C 118.644531 134.972656 118.074219 135 117.5 135 Z M 117.5 135 " fill-opacity="1" fill-rule="nonzero"/></g><g clip-path="url(#a9124e5951)"><path fill="#838383" d="M 310 248.75 L 195.007812 248.75 C 194.769531 247.820312 194.496094 246.902344 194.183594 245.992188 C 193.871094 245.085938 193.519531 244.195312 193.136719 243.316406 C 192.75 242.4375 192.328125 241.578125 191.867188 240.734375 C 191.410156 239.890625 190.921875 239.066406 190.394531 238.261719 C 189.867188 237.460938 189.3125 236.679688 188.722656 235.921875 C 188.132812 235.167969 187.511719 234.4375 186.859375 233.730469 C 186.210938 233.023438 185.53125 232.347656 184.824219 231.699219 C 184.117188 231.046875 183.386719 230.429688 182.628906 229.839844 C 181.871094 229.25 181.089844 228.695312 180.285156 228.171875 C 179.484375 227.644531 178.660156 227.15625 177.816406 226.699219 C 176.972656 226.242188 176.109375 225.820312 175.230469 225.4375 C 174.351562 225.050781 173.457031 224.703125 172.550781 224.390625 C 171.644531 224.082031 170.722656 223.808594 169.792969 223.570312 C 168.863281 223.335938 167.925781 223.140625 166.976562 222.980469 C 166.03125 222.824219 165.082031 222.707031 164.125 222.625 C 163.167969 222.546875 162.210938 222.507812 161.25 222.507812 C 160.289062 222.507812 159.332031 222.546875 158.375 222.625 C 157.417969 222.707031 156.46875 222.824219 155.523438 222.980469 C 154.574219 223.140625 153.636719 223.335938 152.707031 223.570312 C 151.777344 223.808594 150.855469 224.082031 149.949219 224.390625 C 149.042969 224.703125 148.148438 225.050781 147.269531 225.4375 C 146.390625 225.820312 145.527344 226.242188 144.683594 226.699219 C 143.839844 227.15625 143.015625 227.644531 142.214844 228.171875 C 141.410156 228.695312 140.628906 229.25 139.871094 229.839844 C 139.113281 230.429688 138.382812 231.046875 137.675781 231.699219 C 136.96875 232.347656 136.289062 233.023438 135.640625 233.730469 C 134.988281 234.4375 134.367188 235.167969 133.777344 235.921875 C 133.1875 236.679688 132.632812 237.460938 132.105469 238.261719 C 131.578125 239.066406 131.089844 239.890625 130.632812 240.734375 C 130.171875 241.578125 129.75 242.4375 129.363281 243.316406 C 128.980469 244.195312 128.628906 245.085938 128.316406 245.992188 C 128.003906 246.902344 127.730469 247.820312 127.492188 248.75 L 65 248.75 C 64.425781 248.75 63.855469 248.804688 63.292969 248.917969 C 62.730469 249.03125 62.183594 249.195312 61.652344 249.417969 C 61.121094 249.636719 60.617188 249.90625 60.140625 250.226562 C 59.660156 250.542969 59.21875 250.90625 58.8125 251.3125 C 58.40625 251.71875 58.042969 252.160156 57.726562 252.640625 C 57.40625 253.117188 57.136719 253.621094 56.917969 254.152344 C 56.695312 254.683594 56.53125 255.230469 56.417969 255.792969 C 56.304688 256.355469 56.25 256.925781 56.25 257.5 C 56.25 258.074219 56.304688 258.644531 56.417969 259.207031 C 56.53125 259.769531 56.695312 260.316406 56.917969 260.847656 C 57.136719 261.378906 57.40625 261.882812 57.726562 262.359375 C 58.042969 262.839844 58.40625 263.28125 58.8125 263.6875 C 59.21875 264.09375 59.660156 264.457031 60.140625 264.773438 C 60.617188 265.09375 61.121094 265.363281 61.652344 265.582031 C 62.183594 265.804688 62.730469 265.96875 63.292969 266.082031 C 63.855469 266.195312 64.425781 266.25 65 266.25 L 127.492188 266.25 C 127.730469 267.179688 128.003906 268.097656 128.316406 269.003906 C 128.628906 269.914062 128.980469 270.804688 129.363281 271.683594 C 129.75 272.5625 130.171875 273.421875 130.632812 274.265625 C 131.089844 275.109375 131.578125 275.933594 132.105469 276.738281 C 132.632812 277.539062 133.1875 278.320312 133.777344 279.074219 C 134.367188 279.832031 134.988281 280.5625 135.640625 281.269531 C 136.289062 281.976562 136.96875 282.652344 137.675781 283.300781 C 138.382812 283.953125 139.113281 284.570312 139.871094 285.160156 C 140.628906 285.75 141.410156 286.304688 142.214844 286.828125 C 143.015625 287.355469 143.839844 287.84375 144.683594 288.300781 C 145.527344 288.757812 146.390625 289.179688 147.269531 289.5625 C 148.148438 289.949219 149.042969 290.296875 149.949219 290.609375 C 150.855469 290.917969 151.777344 291.191406 152.707031 291.429688 C 153.636719 291.664062 154.574219 291.859375 155.523438 292.015625 C 156.46875 292.175781 157.417969 292.292969 158.375 292.371094 C 159.332031 292.453125 160.289062 292.492188 161.25 292.492188 C 162.210938 292.492188 163.167969 292.453125 164.125 292.371094 C 165.082031 292.292969 166.03125 292.175781 166.976562 292.015625 C 167.925781 291.859375 168.863281 291.664062 169.792969 291.429688 C 170.722656 291.191406 171.644531 290.917969 172.550781 290.609375 C 173.457031 290.296875 174.351562 289.949219 175.230469 289.5625 C 176.109375 289.179688 176.972656 288.757812 177.816406 288.300781 C 178.660156 287.84375 179.484375 287.355469 180.285156 286.828125 C 181.089844 286.304688 181.871094 285.75 182.628906 285.160156 C 183.386719 284.570312 184.117188 283.953125 184.824219 283.300781 C 185.53125 282.652344 186.210938 281.976562 186.859375 281.269531 C 187.511719 280.5625 188.132812 279.832031 188.722656 279.074219 C 189.3125 278.320312 189.867188 277.539062 190.394531 276.738281 C 190.921875 275.933594 191.410156 275.109375 191.867188 274.265625 C 192.328125 273.421875 192.75 272.5625 193.136719 271.683594 C 193.519531 270.804688 193.871094 269.914062 194.183594 269.003906 C 194.496094 268.097656 194.769531 267.179688 195.007812 266.25 L 310 266.25 C 310.574219 266.25 311.144531 266.195312 311.707031 266.082031 C 312.269531 265.96875 312.816406 265.804688 313.347656 265.582031 C 313.878906 265.363281 314.382812 265.09375 314.859375 264.773438 C 315.339844 264.457031 315.78125 264.09375 316.1875 263.6875 C 316.59375 263.28125 316.957031 262.839844 317.273438 262.359375 C 317.59375 261.882812 317.863281 261.378906 318.082031 260.847656 C 318.304688 260.316406 318.46875 259.769531 318.582031 259.207031 C 318.695312 258.644531 318.75 258.074219 318.75 257.5 C 318.75 256.925781 318.695312 256.355469 318.582031 255.792969 C 318.46875 255.230469 318.304688 254.683594 318.082031 254.152344 C 317.863281 253.621094 317.59375 253.117188 317.273438 252.640625 C 316.957031 252.160156 316.59375 251.71875 316.1875 251.3125 C 315.78125 250.90625 315.339844 250.542969 314.859375 250.226562 C 314.382812 249.90625 313.878906 249.636719 313.347656 249.417969 C 312.816406 249.195312 312.269531 249.03125 311.707031 248.917969 C 311.144531 248.804688 310.574219 248.75 310 248.75 Z M 161.25 275 C 160.675781 275 160.105469 274.972656 159.535156 274.914062 C 158.964844 274.859375 158.398438 274.777344 157.835938 274.664062 C 157.273438 274.550781 156.71875 274.414062 156.171875 274.246094 C 155.621094 274.078125 155.082031 273.886719 154.554688 273.667969 C 154.023438 273.449219 153.507812 273.203125 153 272.933594 C 152.496094 272.664062 152.003906 272.367188 151.527344 272.050781 C 151.050781 271.730469 150.589844 271.390625 150.148438 271.027344 C 149.703125 270.664062 149.28125 270.28125 148.875 269.875 C 148.46875 269.46875 148.085938 269.042969 147.722656 268.601562 C 147.359375 268.160156 147.019531 267.699219 146.699219 267.222656 C 146.378906 266.746094 146.085938 266.253906 145.816406 265.75 C 145.546875 265.242188 145.300781 264.726562 145.082031 264.195312 C 144.863281 263.667969 144.667969 263.128906 144.503906 262.578125 C 144.335938 262.03125 144.199219 261.476562 144.085938 260.914062 C 143.972656 260.351562 143.890625 259.785156 143.835938 259.214844 C 143.777344 258.644531 143.75 258.074219 143.75 257.5 C 143.75 256.925781 143.777344 256.355469 143.835938 255.785156 C 143.890625 255.214844 143.972656 254.648438 144.085938 254.085938 C 144.199219 253.523438 144.335938 252.96875 144.503906 252.421875 C 144.667969 251.871094 144.863281 251.332031 145.082031 250.804688 C 145.300781 250.273438 145.546875 249.757812 145.816406 249.25 C 146.085938 248.746094 146.378906 248.253906 146.699219 247.777344 C 147.019531 247.300781 147.359375 246.839844 147.722656 246.398438 C 148.085938 245.953125 148.46875 245.53125 148.875 245.125 C 149.28125 244.71875 149.703125 244.335938 150.148438 243.972656 C 150.589844 243.609375 151.050781 243.269531 151.527344 242.949219 C 152.003906 242.628906 152.496094 242.335938 153 242.066406 C 153.507812 241.796875 154.023438 241.550781 154.554688 241.332031 C 155.082031 241.113281 155.621094 240.917969 156.171875 240.753906 C 156.71875 240.585938 157.273438 240.449219 157.835938 240.335938 C 158.398438 240.222656 158.964844 240.140625 159.535156 240.085938 C 160.105469 240.027344 160.675781 240 161.25 240 C 161.824219 240 162.394531 240.027344 162.964844 240.085938 C 163.535156 240.140625 164.101562 240.222656 164.664062 240.335938 C 165.226562 240.449219 165.78125 240.585938 166.328125 240.753906 C 166.878906 240.917969 167.417969 241.113281 167.945312 241.332031 C 168.476562 241.550781 168.992188 241.796875 169.5 242.066406 C 170.003906 242.335938 170.496094 242.628906 170.972656 242.949219 C 171.449219 243.269531 171.910156 243.609375 172.351562 243.972656 C 172.796875 244.335938 173.21875 244.71875 173.625 245.125 C 174.03125 245.53125 174.414062 245.953125 174.777344 246.398438 C 175.140625 246.839844 175.480469 247.300781 175.800781 247.777344 C 176.117188 248.253906 176.414062 248.746094 176.683594 249.25 C 176.953125 249.757812 177.199219 250.273438 177.417969 250.804688 C 177.636719 251.332031 177.828125 251.871094 177.996094 252.421875 C 178.164062 252.96875 178.300781 253.523438 178.414062 254.085938 C 178.527344 254.648438 178.609375 255.214844 178.664062 255.785156 C 178.722656 256.355469 178.75 256.925781 178.75 257.5 C 178.75 258.074219 178.722656 258.644531 178.664062 259.214844 C 178.609375 259.785156 178.527344 260.351562 178.414062 260.914062 C 178.300781 261.476562 178.164062 262.03125 177.996094 262.578125 C 177.828125 263.128906 177.636719 263.667969 177.417969 264.195312 C 177.199219 264.726562 176.953125 265.242188 176.683594 265.75 C 176.414062 266.253906 176.117188 266.746094 175.800781 267.222656 C 175.480469 267.699219 175.140625 268.160156 174.777344 268.601562 C 174.414062 269.042969 174.03125 269.46875 173.625 269.875 C 173.21875 270.28125 172.796875 270.664062 172.351562 271.027344 C 171.910156 271.390625 171.449219 271.730469 170.972656 272.050781 C 170.496094 272.367188 170.003906 272.664062 169.5 272.933594 C 168.992188 273.203125 168.476562 273.449219 167.945312 273.667969 C 167.417969 273.886719 166.878906 274.078125 166.328125 274.246094 C 165.78125 274.414062 165.226562 274.550781 164.664062 274.664062 C 164.101562 274.777344 163.535156 274.859375 162.964844 274.914062 C 162.394531 274.972656 161.824219 275 161.25 275 Z M 161.25 275 " fill-opacity="1" fill-rule="nonzero"/></g><g clip-path="url(#345e702992)"><path fill="#838383" d="M 310 178.75 L 300.007812 178.75 C 299.769531 177.820312 299.496094 176.902344 299.183594 175.996094 C 298.871094 175.085938 298.519531 174.195312 298.136719 173.316406 C 297.75 172.4375 297.328125 171.578125 296.867188 170.734375 C 296.410156 169.890625 295.921875 169.066406 295.394531 168.261719 C 294.867188 167.460938 294.3125 166.679688 293.722656 165.921875 C 293.132812 165.167969 292.511719 164.4375 291.859375 163.730469 C 291.210938 163.023438 290.53125 162.347656 289.824219 161.699219 C 289.117188 161.046875 288.386719 160.429688 287.628906 159.839844 C 286.871094 159.25 286.089844 158.695312 285.285156 158.171875 C 284.484375 157.644531 283.660156 157.15625 282.816406 156.699219 C 281.972656 156.242188 281.109375 155.820312 280.230469 155.4375 C 279.351562 155.050781 278.457031 154.703125 277.550781 154.390625 C 276.644531 154.082031 275.722656 153.808594 274.792969 153.570312 C 273.863281 153.335938 272.925781 153.140625 271.976562 152.984375 C 271.03125 152.824219 270.082031 152.707031 269.125 152.625 C 268.167969 152.546875 267.210938 152.507812 266.25 152.507812 C 265.289062 152.507812 264.332031 152.546875 263.375 152.625 C 262.417969 152.707031 261.46875 152.824219 260.523438 152.984375 C 259.574219 153.140625 258.636719 153.335938 257.707031 153.570312 C 256.777344 153.808594 255.855469 154.082031 254.949219 154.390625 C 254.042969 154.703125 253.148438 155.050781 252.269531 155.4375 C 251.390625 155.820312 250.527344 156.242188 249.683594 156.699219 C 248.839844 157.15625 248.015625 157.644531 247.214844 158.171875 C 246.410156 158.695312 245.628906 159.25 244.871094 159.839844 C 244.113281 160.429688 243.382812 161.046875 242.675781 161.699219 C 241.96875 162.347656 241.289062 163.023438 240.640625 163.730469 C 239.988281 164.4375 239.367188 165.167969 238.777344 165.921875 C 238.1875 166.679688 237.632812 167.460938 237.105469 168.261719 C 236.578125 169.066406 236.089844 169.890625 235.632812 170.734375 C 235.171875 171.578125 234.75 172.4375 234.363281 173.316406 C 233.980469 174.195312 233.628906 175.085938 233.316406 175.996094 C 233.003906 176.902344 232.730469 177.820312 232.492188 178.75 L 65 178.75 C 64.425781 178.75 63.855469 178.804688 63.292969 178.917969 C 62.730469 179.03125 62.183594 179.195312 61.652344 179.417969 C 61.121094 179.636719 60.617188 179.90625 60.140625 180.226562 C 59.660156 180.542969 59.21875 180.90625 58.8125 181.3125 C 58.40625 181.71875 58.042969 182.160156 57.726562 182.640625 C 57.40625 183.117188 57.136719 183.621094 56.917969 184.152344 C 56.695312 184.683594 56.53125 185.230469 56.417969 185.792969 C 56.304688 186.355469 56.25 186.925781 56.25 187.5 C 56.25 188.074219 56.304688 188.644531 56.417969 189.207031 C 56.53125 189.769531 56.695312 190.316406 56.917969 190.847656 C 57.136719 191.378906 57.40625 191.882812 57.726562 192.359375 C 58.042969 192.839844 58.40625 193.28125 58.8125 193.6875 C 59.21875 194.09375 59.660156 194.457031 60.140625 194.773438 C 60.617188 195.09375 61.121094 195.363281 61.652344 195.582031 C 62.183594 195.804688 62.730469 195.96875 63.292969 196.082031 C 63.855469 196.195312 64.425781 196.25 65 196.25 L 232.492188 196.25 C 232.730469 197.179688 233.003906 198.097656 233.316406 199.003906 C 233.628906 199.914062 233.980469 200.804688 234.363281 201.683594 C 234.75 202.5625 235.171875 203.421875 235.632812 204.265625 C 236.089844 205.109375 236.578125 205.933594 237.105469 206.738281 C 237.632812 207.539062 238.1875 208.320312 238.777344 209.074219 C 239.367188 209.832031 239.988281 210.5625 240.640625 211.269531 C 241.289062 211.976562 241.96875 212.652344 242.675781 213.300781 C 243.382812 213.953125 244.113281 214.570312 244.871094 215.160156 C 245.628906 215.75 246.410156 216.304688 247.214844 216.828125 C 248.015625 217.355469 248.839844 217.84375 249.683594 218.300781 C 250.527344 218.757812 251.390625 219.179688 252.269531 219.5625 C 253.148438 219.949219 254.042969 220.296875 254.949219 220.609375 C 255.855469 220.917969 256.777344 221.191406 257.707031 221.429688 C 258.636719 221.664062 259.574219 221.859375 260.523438 222.015625 C 261.46875 222.175781 262.417969 222.292969 263.375 222.371094 C 264.332031 222.453125 265.289062 222.492188 266.25 222.492188 C 267.210938 222.492188 268.167969 222.453125 269.125 222.371094 C 270.082031 222.292969 271.03125 222.175781 271.976562 222.015625 C 272.925781 221.859375 273.863281 221.664062 274.792969 221.429688 C 275.722656 221.191406 276.644531 220.917969 277.550781 220.609375 C 278.457031 220.296875 279.351562 219.949219 280.230469 219.5625 C 281.109375 219.179688 281.972656 218.757812 282.816406 218.300781 C 283.660156 217.84375 284.484375 217.355469 285.285156 216.828125 C 286.089844 216.304688 286.871094 215.75 287.628906 215.160156 C 288.386719 214.570312 289.117188 213.953125 289.824219 213.300781 C 290.53125 212.652344 291.210938 211.976562 291.859375 211.269531 C 292.511719 210.5625 293.132812 209.832031 293.722656 209.074219 C 294.3125 208.320312 294.867188 207.539062 295.394531 206.738281 C 295.921875 205.933594 296.410156 205.109375 296.867188 204.265625 C 297.328125 203.421875 297.75 202.5625 298.136719 201.683594 C 298.519531 200.804688 298.871094 199.914062 299.183594 199.003906 C 299.496094 198.097656 299.769531 197.179688 300.007812 196.25 L 310 196.25 C 310.574219 196.25 311.144531 196.195312 311.707031 196.082031 C 312.269531 195.96875 312.816406 195.804688 313.347656 195.582031 C 313.878906 195.363281 314.382812 195.09375 314.859375 194.773438 C 315.339844 194.457031 315.78125 194.09375 316.1875 193.6875 C 316.59375 193.28125 316.957031 192.839844 317.273438 192.359375 C 317.59375 191.882812 317.863281 191.378906 318.082031 190.847656 C 318.304688 190.316406 318.46875 189.769531 318.582031 189.207031 C 318.695312 188.644531 318.75 188.074219 318.75 187.5 C 318.75 186.925781 318.695312 186.355469 318.582031 185.792969 C 318.46875 185.230469 318.304688 184.683594 318.082031 184.152344 C 317.863281 183.621094 317.59375 183.117188 317.273438 182.640625 C 316.957031 182.160156 316.59375 181.71875 316.1875 181.3125 C 315.78125 180.90625 315.339844 180.542969 314.859375 180.226562 C 314.382812 179.90625 313.878906 179.636719 313.347656 179.417969 C 312.816406 179.195312 312.269531 179.03125 311.707031 178.917969 C 311.144531 178.804688 310.574219 178.75 310 178.75 Z M 266.25 205 C 265.675781 205 265.105469 204.972656 264.535156 204.914062 C 263.964844 204.859375 263.398438 204.777344 262.835938 204.664062 C 262.273438 204.550781 261.71875 204.414062 261.171875 204.246094 C 260.621094 204.078125 260.082031 203.886719 259.554688 203.667969 C 259.023438 203.449219 258.507812 203.203125 258 202.933594 C 257.496094 202.664062 257.003906 202.367188 256.527344 202.050781 C 256.050781 201.730469 255.589844 201.390625 255.148438 201.027344 C 254.703125 200.664062 254.28125 200.28125 253.875 199.875 C 253.46875 199.46875 253.085938 199.042969 252.722656 198.601562 C 252.359375 198.160156 252.019531 197.699219 251.699219 197.222656 C 251.378906 196.746094 251.085938 196.253906 250.816406 195.75 C 250.546875 195.242188 250.300781 194.726562 250.082031 194.195312 C 249.863281 193.667969 249.667969 193.128906 249.503906 192.578125 C 249.335938 192.03125 249.199219 191.476562 249.085938 190.914062 C 248.972656 190.351562 248.890625 189.785156 248.835938 189.214844 C 248.777344 188.644531 248.75 188.074219 248.75 187.5 C 248.75 186.925781 248.777344 186.355469 248.835938 185.785156 C 248.890625 185.214844 248.972656 184.648438 249.085938 184.085938 C 249.199219 183.523438 249.335938 182.96875 249.503906 182.421875 C 249.667969 181.871094 249.863281 181.332031 250.082031 180.804688 C 250.300781 180.273438 250.546875 179.757812 250.816406 179.25 C 251.085938 178.746094 251.378906 178.253906 251.699219 177.777344 C 252.019531 177.300781 252.359375 176.839844 252.722656 176.398438 C 253.085938 175.953125 253.46875 175.53125 253.875 175.125 C 254.28125 174.71875 254.707031 174.335938 255.148438 173.972656 C 255.589844 173.609375 256.050781 173.269531 256.527344 172.949219 C 257.003906 172.628906 257.496094 172.335938 258 172.066406 C 258.507812 171.796875 259.023438 171.550781 259.554688 171.332031 C 260.082031 171.113281 260.621094 170.917969 261.171875 170.753906 C 261.71875 170.585938 262.273438 170.449219 262.835938 170.335938 C 263.398438 170.222656 263.964844 170.140625 264.535156 170.085938 C 265.105469 170.027344 265.675781 170 266.25 170 C 266.824219 170 267.394531 170.027344 267.964844 170.085938 C 268.535156 170.140625 269.101562 170.222656 269.664062 170.335938 C 270.226562 170.449219 270.78125 170.585938 271.328125 170.753906 C 271.878906 170.917969 272.417969 171.113281 272.945312 171.332031 C 273.476562 171.550781 273.992188 171.796875 274.5 172.066406 C 275.003906 172.335938 275.496094 172.628906 275.972656 172.949219 C 276.449219 173.269531 276.910156 173.609375 277.351562 173.972656 C 277.796875 174.335938 278.21875 174.71875 278.625 175.125 C 279.03125 175.53125 279.414062 175.953125 279.777344 176.398438 C 280.140625 176.839844 280.480469 177.300781 280.800781 177.777344 C 281.117188 178.253906 281.414062 178.746094 281.683594 179.25 C 281.953125 179.757812 282.199219 180.273438 282.417969 180.804688 C 282.636719 181.332031 282.828125 181.871094 282.996094 182.421875 C 283.164062 182.96875 283.300781 183.523438 283.414062 184.085938 C 283.527344 184.648438 283.609375 185.214844 283.664062 185.785156 C 283.722656 186.355469 283.75 186.925781 283.75 187.5 C 283.75 188.074219 283.722656 188.644531 283.664062 189.214844 C 283.609375 189.785156 283.527344 190.351562 283.414062 190.914062 C 283.300781 191.476562 283.164062 192.03125 282.996094 192.578125 C 282.828125 193.128906 282.636719 193.667969 282.417969 194.195312 C 282.199219 194.726562 281.953125 195.242188 281.683594 195.75 C 281.414062 196.253906 281.117188 196.746094 280.800781 197.222656 C 280.480469 197.699219 280.140625 198.160156 279.777344 198.601562 C 279.414062 199.042969 279.03125 199.46875 278.625 199.875 C 278.21875 200.28125 277.796875 200.664062 277.351562 201.027344 C 276.910156 201.390625 276.449219 201.730469 275.972656 202.050781 C 275.496094 202.367188 275.003906 202.664062 274.5 202.933594 C 273.992188 203.203125 273.476562 203.449219 272.945312 203.667969 C 272.417969 203.886719 271.878906 204.078125 271.328125 204.246094 C 270.78125 204.414062 270.226562 204.550781 269.664062 204.664062 C 269.101562 204.777344 268.535156 204.859375 267.964844 204.914062 C 267.394531 204.972656 266.824219 205 266.25 205 Z M 266.25 205 " fill-opacity="1" fill-rule="nonzero"/></g></svg>