<svg xmlns="http://www.w3.org/2000/svg" xmlns:xlink="http://www.w3.org/1999/xlink" width="500" zoomAndPan="magnify" viewBox="0 0 375 374.999991" height="500" preserveAspectRatio="xMidYMid meet" version="1.0"><defs><clipPath id="2f86ae043b"><path d="M 215 216 L 311 216 L 311 311.554688 L 215 311.554688 Z M 215 216 " clip-rule="nonzero"/></clipPath></defs><rect x="-37.5" width="450" fill="#ffffff" y="-37.499999" height="449.999989" fill-opacity="1"/><rect x="-37.5" width="450" fill="#ffffff" y="-37.499999" height="449.999989" fill-opacity="1"/><path fill="#838383" d="M 165.886719 261.644531 C 163.945312 261.644531 162.007812 261.585938 160.074219 261.46875 C 158.136719 261.351562 156.207031 261.171875 154.28125 260.9375 C 152.355469 260.699219 150.441406 260.40625 148.535156 260.050781 C 146.625 259.695312 144.730469 259.285156 142.851562 258.8125 C 140.96875 258.34375 139.105469 257.816406 137.253906 257.230469 C 135.40625 256.644531 133.574219 256.003906 131.765625 255.308594 C 129.957031 254.609375 128.167969 253.855469 126.40625 253.050781 C 124.640625 252.242188 122.90625 251.382812 121.195312 250.46875 C 119.484375 249.554688 117.800781 248.589844 116.152344 247.574219 C 114.5 246.554688 112.878906 245.488281 111.292969 244.371094 C 109.707031 243.257812 108.15625 242.09375 106.644531 240.882812 C 105.128906 239.667969 103.652344 238.414062 102.214844 237.109375 C 100.777344 235.808594 99.382812 234.464844 98.027344 233.074219 C 96.671875 231.6875 95.359375 230.257812 94.09375 228.792969 C 92.828125 227.324219 91.605469 225.816406 90.429688 224.273438 C 89.257812 222.730469 88.128906 221.152344 87.050781 219.539062 C 85.972656 217.925781 84.945312 216.285156 83.96875 214.609375 C 82.992188 212.933594 82.070312 211.230469 81.195312 209.496094 C 80.324219 207.765625 79.503906 206.007812 78.742188 204.222656 C 77.976562 202.441406 77.269531 200.636719 76.613281 198.8125 C 75.960938 196.984375 75.363281 195.140625 74.824219 193.277344 C 74.28125 191.414062 73.800781 189.539062 73.375 187.644531 C 72.949219 185.753906 72.582031 183.847656 72.277344 181.933594 C 71.96875 180.019531 71.71875 178.097656 71.527344 176.167969 C 71.335938 174.238281 71.207031 172.300781 71.136719 170.363281 C 71.0625 168.425781 71.050781 166.488281 71.101562 164.546875 C 71.148438 162.609375 71.253906 160.675781 71.421875 158.742188 C 71.585938 156.808594 71.8125 154.882812 72.097656 152.964844 C 72.382812 151.046875 72.726562 149.136719 73.128906 147.242188 C 73.53125 145.34375 73.988281 143.460938 74.507812 141.589844 C 75.023438 139.722656 75.597656 137.871094 76.230469 136.035156 C 76.859375 134.203125 77.546875 132.390625 78.289062 130.597656 C 79.03125 128.804688 79.828125 127.039062 80.679688 125.296875 C 81.53125 123.554688 82.433594 121.835938 83.390625 120.148438 C 84.347656 118.464844 85.355469 116.804688 86.410156 115.179688 C 87.46875 113.554688 88.578125 111.964844 89.734375 110.40625 C 90.886719 108.847656 92.089844 107.328125 93.339844 105.84375 C 94.589844 104.359375 95.882812 102.917969 97.21875 101.511719 C 98.558594 100.105469 99.9375 98.746094 101.359375 97.425781 C 102.78125 96.105469 104.238281 94.832031 105.738281 93.601562 C 107.238281 92.371094 108.773438 91.1875 110.347656 90.050781 C 111.917969 88.917969 113.527344 87.832031 115.164062 86.792969 C 116.804688 85.757812 118.472656 84.769531 120.171875 83.835938 C 121.871094 82.902344 123.597656 82.019531 125.351562 81.191406 C 127.105469 80.363281 128.882812 79.589844 130.683594 78.867188 C 132.484375 78.148438 134.304688 77.484375 136.148438 76.878906 C 137.988281 76.269531 139.847656 75.71875 141.722656 75.226562 C 143.601562 74.730469 145.488281 74.296875 147.390625 73.917969 C 149.292969 73.542969 151.207031 73.222656 153.128906 72.960938 C 155.050781 72.703125 156.976562 72.5 158.914062 72.359375 C 160.847656 72.21875 162.785156 72.136719 164.722656 72.113281 C 166.664062 72.089844 168.601562 72.125 170.539062 72.222656 C 172.476562 72.320312 174.40625 72.472656 176.335938 72.6875 C 178.261719 72.902344 180.183594 73.175781 182.09375 73.511719 C 184.003906 73.84375 185.902344 74.234375 187.789062 74.683594 C 189.675781 75.132812 191.546875 75.636719 193.402344 76.203125 C 195.257812 76.765625 197.09375 77.386719 198.914062 78.0625 C 200.730469 78.742188 202.527344 79.472656 204.296875 80.261719 C 206.070312 81.046875 207.816406 81.886719 209.539062 82.78125 C 211.261719 83.675781 212.953125 84.621094 214.613281 85.621094 C 216.277344 86.617188 217.910156 87.667969 219.507812 88.765625 C 221.105469 89.863281 222.667969 91.011719 224.195312 92.203125 C 225.726562 93.398438 227.214844 94.640625 228.667969 95.925781 C 230.121094 97.210938 231.53125 98.539062 232.902344 99.910156 C 234.546875 101.554688 236.132812 103.257812 237.652344 105.019531 C 239.171875 106.78125 240.628906 108.597656 242.015625 110.464844 C 243.402344 112.335938 244.71875 114.25 245.964844 116.214844 C 247.210938 118.183594 248.382812 120.191406 249.480469 122.242188 C 250.578125 124.292969 251.601562 126.382812 252.542969 128.511719 C 253.488281 130.640625 254.351562 132.796875 255.136719 134.988281 C 255.921875 137.179688 256.625 139.394531 257.246094 141.640625 C 257.867188 143.882812 258.40625 146.144531 258.859375 148.425781 C 259.3125 150.710938 259.683594 153.003906 259.96875 155.316406 C 260.253906 157.625 260.453125 159.941406 260.570312 162.265625 C 260.683594 164.589844 260.710938 166.914062 260.65625 169.242188 C 260.597656 171.570312 260.457031 173.890625 260.226562 176.207031 C 260 178.523438 259.6875 180.828125 259.289062 183.121094 C 258.890625 185.414062 258.410156 187.6875 257.84375 189.945312 C 257.277344 192.203125 256.632812 194.4375 255.902344 196.644531 C 255.171875 198.855469 254.359375 201.035156 253.46875 203.183594 C 252.578125 205.335938 251.609375 207.449219 250.5625 209.527344 C 249.515625 211.605469 248.394531 213.644531 247.199219 215.640625 C 246 217.636719 244.730469 219.585938 243.390625 221.488281 C 242.050781 223.390625 240.640625 225.238281 239.164062 227.039062 C 237.6875 228.835938 236.148438 230.578125 234.542969 232.261719 C 232.9375 233.949219 231.273438 235.570312 229.546875 237.132812 C 227.820312 238.695312 226.042969 240.191406 224.207031 241.625 C 222.371094 243.054688 220.484375 244.414062 218.550781 245.707031 C 216.613281 247 214.632812 248.21875 212.609375 249.363281 C 210.582031 250.511719 208.519531 251.582031 206.414062 252.574219 C 204.308594 253.566406 202.171875 254.484375 200 255.320312 C 197.828125 256.15625 195.628906 256.910156 193.402344 257.585938 C 191.171875 258.257812 188.925781 258.851562 186.652344 259.359375 C 184.382812 259.867188 182.09375 260.289062 179.792969 260.628906 C 177.492188 260.96875 175.179688 261.222656 172.859375 261.394531 C 170.539062 261.5625 168.214844 261.648438 165.886719 261.644531 Z M 165.886719 92.988281 C 164.472656 92.984375 163.0625 93.019531 161.652344 93.097656 C 160.242188 93.175781 158.832031 93.292969 157.429688 93.453125 C 156.027344 93.609375 154.628906 93.808594 153.234375 94.046875 C 151.84375 94.285156 150.457031 94.566406 149.082031 94.882812 C 147.707031 95.199219 146.339844 95.558594 144.984375 95.953125 C 143.628906 96.351562 142.285156 96.785156 140.953125 97.257812 C 139.621094 97.730469 138.304688 98.242188 137.003906 98.789062 C 135.703125 99.339844 134.417969 99.925781 133.148438 100.546875 C 131.878906 101.167969 130.628906 101.828125 129.398438 102.519531 C 128.167969 103.214844 126.960938 103.945312 125.769531 104.707031 C 124.582031 105.46875 123.417969 106.265625 122.273438 107.097656 C 121.128906 107.925781 120.011719 108.789062 118.917969 109.683594 C 117.824219 110.578125 116.757812 111.503906 115.714844 112.457031 C 114.675781 113.414062 113.664062 114.398438 112.679688 115.410156 C 111.695312 116.425781 110.742188 117.464844 109.816406 118.53125 C 108.890625 119.601562 108 120.695312 107.136719 121.8125 C 106.273438 122.933594 105.445312 124.078125 104.648438 125.242188 C 103.851562 126.410156 103.089844 127.597656 102.363281 128.808594 C 101.632812 130.019531 100.941406 131.25 100.28125 132.5 C 99.625 133.75 99.003906 135.019531 98.417969 136.304688 C 97.832031 137.589844 97.285156 138.890625 96.773438 140.207031 C 96.265625 141.527344 95.792969 142.855469 95.359375 144.203125 C 94.925781 145.546875 94.527344 146.902344 94.171875 148.269531 C 93.816406 149.636719 93.5 151.011719 93.222656 152.394531 C 92.945312 153.78125 92.707031 155.171875 92.507812 156.570312 C 92.308594 157.972656 92.152344 159.375 92.035156 160.78125 C 91.917969 162.191406 91.839844 163.601562 91.804688 165.011719 C 91.765625 166.425781 91.769531 167.835938 91.816406 169.25 C 91.859375 170.660156 91.945312 172.070312 92.070312 173.476562 C 92.195312 174.882812 92.359375 176.285156 92.566406 177.683594 C 92.769531 179.082031 93.015625 180.472656 93.300781 181.855469 C 93.585938 183.238281 93.910156 184.613281 94.277344 185.980469 C 94.640625 187.34375 95.042969 188.699219 95.484375 190.039062 C 95.925781 191.382812 96.40625 192.710938 96.921875 194.023438 C 97.441406 195.339844 97.996094 196.636719 98.585938 197.917969 C 99.179688 199.203125 99.808594 200.464844 100.472656 201.714844 C 101.136719 202.960938 101.835938 204.1875 102.570312 205.394531 C 103.308594 206.597656 104.074219 207.785156 104.878906 208.945312 C 105.679688 210.109375 106.515625 211.246094 107.386719 212.363281 C 108.253906 213.476562 109.152344 214.566406 110.082031 215.628906 C 111.011719 216.691406 111.972656 217.726562 112.964844 218.734375 C 113.953125 219.742188 114.972656 220.722656 116.015625 221.671875 C 117.0625 222.621094 118.136719 223.539062 119.234375 224.425781 C 120.332031 225.316406 121.457031 226.171875 122.601562 226.996094 C 123.75 227.820312 124.921875 228.609375 126.113281 229.367188 C 127.308594 230.121094 128.519531 230.84375 129.753906 231.53125 C 130.988281 232.21875 132.242188 232.871094 133.511719 233.484375 C 134.785156 234.101562 136.074219 234.679688 137.378906 235.21875 C 138.683594 235.761719 140.003906 236.265625 141.335938 236.730469 C 142.667969 237.199219 144.015625 237.625 145.375 238.011719 C 146.730469 238.402344 148.101562 238.75 149.476562 239.0625 C 150.855469 239.371094 152.242188 239.644531 153.636719 239.875 C 155.03125 240.105469 156.429688 240.296875 157.832031 240.445312 C 159.238281 240.597656 160.644531 240.707031 162.058594 240.777344 C 163.46875 240.847656 164.878906 240.875 166.292969 240.867188 C 167.703125 240.855469 169.117188 240.804688 170.527344 240.710938 C 171.933594 240.621094 173.339844 240.488281 174.742188 240.316406 C 176.144531 240.144531 177.542969 239.929688 178.933594 239.679688 C 180.320312 239.425781 181.703125 239.132812 183.078125 238.800781 C 184.449219 238.46875 185.8125 238.101562 187.164062 237.691406 C 188.515625 237.28125 189.855469 236.832031 191.183594 236.347656 C 192.507812 235.859375 193.820312 235.335938 195.117188 234.773438 C 196.410156 234.210938 197.691406 233.613281 198.953125 232.980469 C 200.214844 232.34375 201.457031 231.671875 202.679688 230.96875 C 203.90625 230.261719 205.105469 229.519531 206.289062 228.746094 C 207.46875 227.96875 208.628906 227.160156 209.761719 226.320312 C 210.894531 225.480469 212.007812 224.605469 213.089844 223.699219 C 214.175781 222.796875 215.234375 221.859375 216.265625 220.894531 C 217.296875 219.929688 218.296875 218.933594 219.273438 217.910156 C 220.246094 216.886719 221.191406 215.839844 222.105469 214.761719 C 223.019531 213.683594 223.902344 212.582031 224.75 211.453125 C 225.601562 210.324219 226.417969 209.175781 227.203125 208 C 227.988281 206.824219 228.738281 205.628906 229.457031 204.410156 C 230.171875 203.191406 230.851562 201.957031 231.496094 200.699219 C 232.144531 199.441406 232.75 198.167969 233.324219 196.875 C 233.894531 195.585938 234.429688 194.277344 234.929688 192.957031 C 235.425781 191.632812 235.882812 190.296875 236.304688 188.949219 C 236.726562 187.601562 237.109375 186.242188 237.449219 184.871094 C 237.792969 183.5 238.097656 182.121094 238.359375 180.734375 C 238.625 179.34375 238.847656 177.953125 239.03125 176.550781 C 239.214844 175.148438 239.359375 173.746094 239.460938 172.335938 C 239.566406 170.925781 239.628906 169.515625 239.652344 168.105469 C 239.675781 166.691406 239.65625 165.28125 239.597656 163.867188 C 239.539062 162.457031 239.441406 161.046875 239.300781 159.640625 C 239.160156 158.238281 238.984375 156.835938 238.761719 155.441406 C 238.542969 154.042969 238.285156 152.65625 237.984375 151.277344 C 237.6875 149.894531 237.347656 148.523438 236.96875 147.164062 C 236.59375 145.800781 236.175781 144.453125 235.722656 143.113281 C 235.265625 141.777344 234.773438 140.453125 234.242188 139.144531 C 233.710938 137.835938 233.144531 136.542969 232.539062 135.265625 C 231.933594 133.988281 231.292969 132.730469 230.617188 131.492188 C 229.941406 130.25 229.226562 129.03125 228.480469 127.832031 C 227.734375 126.632812 226.953125 125.457031 226.140625 124.304688 C 225.324219 123.148438 224.476562 122.019531 223.597656 120.914062 C 222.71875 119.808594 221.808594 118.726562 220.867188 117.671875 C 219.925781 116.621094 218.957031 115.59375 217.957031 114.597656 C 214.539062 111.175781 210.820312 108.121094 206.796875 105.433594 C 202.777344 102.742188 198.535156 100.472656 194.070312 98.617188 C 189.601562 96.765625 184.996094 95.363281 180.253906 94.414062 C 175.511719 93.46875 170.722656 92.992188 165.886719 92.988281 Z M 165.886719 92.988281 " fill-opacity="1" fill-rule="nonzero"/><g clip-path="url(#2f86ae043b)"><path fill="#838383" d="M 300.230469 311.683594 C 298.851562 311.679688 297.523438 311.410156 296.253906 310.878906 C 294.980469 310.34375 293.859375 309.589844 292.886719 308.613281 L 218.164062 233.941406 C 217.679688 233.460938 217.25 232.933594 216.871094 232.363281 C 216.488281 231.792969 216.167969 231.195312 215.90625 230.5625 C 215.644531 229.929688 215.445312 229.277344 215.3125 228.609375 C 215.179688 227.9375 215.113281 227.257812 215.113281 226.574219 C 215.113281 225.890625 215.179688 225.214844 215.3125 224.542969 C 215.445312 223.871094 215.644531 223.21875 215.90625 222.585938 C 216.167969 221.957031 216.488281 221.355469 216.871094 220.785156 C 217.25 220.21875 217.679688 219.691406 218.164062 219.207031 C 218.648438 218.722656 219.175781 218.289062 219.746094 217.910156 C 220.3125 217.53125 220.914062 217.210938 221.546875 216.949219 C 222.179688 216.6875 222.828125 216.488281 223.5 216.355469 C 224.171875 216.222656 224.847656 216.15625 225.535156 216.15625 C 226.21875 216.15625 226.894531 216.222656 227.566406 216.355469 C 228.238281 216.488281 228.890625 216.6875 229.519531 216.949219 C 230.152344 217.210938 230.753906 217.53125 231.324219 217.910156 C 231.890625 218.289062 232.417969 218.722656 232.902344 219.207031 L 307.570312 293.929688 C 308.296875 294.65625 308.898438 295.472656 309.378906 296.378906 C 309.863281 297.285156 310.203125 298.242188 310.402344 299.25 C 310.601562 300.257812 310.648438 301.273438 310.550781 302.292969 C 310.449219 303.316406 310.203125 304.300781 309.808594 305.25 C 309.417969 306.199219 308.894531 307.070312 308.246094 307.867188 C 307.59375 308.660156 306.84375 309.34375 305.992188 309.914062 C 305.140625 310.488281 304.222656 310.925781 303.242188 311.226562 C 302.261719 311.527344 301.257812 311.679688 300.230469 311.683594 Z M 300.230469 311.683594 " fill-opacity="1" fill-rule="nonzero"/></g></svg>